<?xml version="1.0" encoding="iso-8859-1"?>
<!-- Generator: Adobe Illustrator 19.0.0, SVG Export Plug-In . SVG Version: 6.00 Build 0)  -->
<svg version="1.1" id="Capa_1" xmlns="http://www.w3.org/2000/svg" xmlns:xlink="http://www.w3.org/1999/xlink" x="0px" y="0px"
	 viewBox="0 0 512 512" style="enable-background:new 0 0 512 512;" xml:space="preserve">
<circle style="fill:#2FCC63;" cx="256" cy="256" r="256"/>
<path style="fill:#647892;" d="M452.038,91.959c-74.639,0-297.277,0-391.973,0c-14.561,0-26.408,11.847-26.408,26.408
	c0,24.658,0,241.226,0,267.838c0,14.521,11.803,26.409,26.408,26.409c18.923,0,374.469,0,391.973,0
	c14.538,0,26.409-11.824,26.409-26.409c0-26.93,0-243.193,0-267.838C478.447,103.805,466.599,91.959,452.038,91.959z"/>
<path style="fill:#4D6682;" d="M89.211,386.204c0-26.612,0-243.179,0-267.838c0-14.561,11.847-26.408,26.408-26.408
	c-30.447,0-51.514,0-55.554,0c-14.561,0-26.409,11.847-26.409,26.408c0,24.658,0,241.226,0,267.838
	c0,14.521,11.804,26.409,26.409,26.409c4.227,0,25.257,0,55.554,0C101.014,412.612,89.211,400.725,89.211,386.204z"/>
<path style="fill:#64C4FF;" d="M61.093,175.075c0,70.3,0,195.575,0,203.12c0,3.856,3.126,6.982,6.982,6.982
	c11.951,0,359.93,0,375.955,0c3.856,0,6.982-3.126,6.982-6.982c0-7.456,0-132.797,0-203.12L61.093,175.075L61.093,175.075z"/>
<path style="fill:#48AEF9;" d="M61.093,175.075c0,70.3,0,195.575,0,203.12c0,3.856,3.125,6.982,6.982,6.982c1.595,0,9.17,0,21.137,0
	c0-22.056,0-137.777,0-210.101L61.093,175.075L61.093,175.075z"/>
<path style="fill:#3B5271;" d="M444.03,119.394c-74.696,0-298.786,0-375.955,0c-3.856,0-6.982,3.126-6.982,6.982
	c0,2.983,0,24.111,0,52.971h389.919c0-28.871,0-50.003,0-52.971C451.011,122.52,447.885,119.394,444.03,119.394z"/>
<path style="fill:#304760;" d="M68.074,119.394c-3.856,0-6.982,3.126-6.982,6.982c0,2.982,0,24.11,0,52.971h28.118
	c0-29.012,0-51.751,0-59.953C81.333,119.394,74.231,119.394,68.074,119.394z"/>
<path style="fill:#EFEFEF;" d="M53.441,412.538c16.608,21.459,36.541,40.213,59.041,55.473h287.037
	c22.5-15.261,42.432-34.014,59.041-55.473H53.441z"/>
<g>
	<path style="fill:#DDDDDD;" d="M120.546,412.538H53.441c14.542,18.789,31.634,35.505,50.765,49.617
		C82.867,446.403,94.018,412.538,120.546,412.538z"/>
	<path style="fill:#DDDDDD;" d="M163.129,412.537v15.605c0,6.672,5.434,12.132,12.077,12.132h161.693
		c6.642,0,12.077-5.459,12.077-12.132v-15.605H163.129z"/>
</g>
<path style="fill:#CCCCCC;" d="M223.188,428.143v-15.605h-60.059v15.605c0,6.672,5.434,12.132,12.077,12.132h60.059
	C228.622,440.274,223.188,434.815,223.188,428.143z"/>
<path style="fill:#FC5B6F;" d="M97.219,157.757c-4.266,0-8.008-3.468-8.008-8.008c0-7.107,8.629-10.707,13.667-5.67
	c1.46,1.458,2.349,3.535,2.349,5.67C105.228,154.097,101.692,157.757,97.219,157.757z"/>
<path style="fill:#FAC149;" d="M125.845,157.757c-4.258,0-8.008-3.441-8.008-8.008c0-5.009,4.586-8.838,9.578-7.858
	c3.774,0.783,6.438,4.035,6.438,7.858C133.854,154.229,130.175,157.757,125.845,157.757z"/>
<path style="fill:#2FCC63;" d="M154.493,157.757c-4.325,0-8.008-3.524-8.008-8.008c0-3.743,2.581-7.041,6.439-7.858
	c4.789-0.962,9.577,2.665,9.577,7.858C162.502,154.1,158.966,157.757,154.493,157.757z"/>
<path style="fill:#647892;" d="M414.885,157.754H188.998c-4.422,0-8.008-3.584-8.008-8.008s3.586-8.008,8.008-8.008h225.888
	c4.422,0,8.008,3.585,8.008,8.008S419.308,157.754,414.885,157.754z"/>
<path style="fill:#EFEFEF;" d="M256.052,137.025c-29.765,0-53.981,24.216-53.981,53.981v29.418h19.671v-29.418
	c0-18.918,15.391-34.309,34.31-34.309s34.31,15.391,34.31,34.309v29.418h19.671v-29.418
	C310.033,161.24,285.817,137.025,256.052,137.025z"/>
<path style="fill:#DDDDDD;" d="M265.916,137.944c-3.201-0.594-6.494-0.919-9.864-0.919c-29.765,0-53.981,24.216-53.981,53.981
	v29.418h19.671v-29.418c0-1.216,0.066-2.417,0.19-3.602C223.573,162.629,241.997,142.381,265.916,137.944z"/>
<path style="fill:#FC5B6F;" d="M315.879,217.22H196.225c-6.967,0-12.614,5.648-12.614,12.614v38.396v64.916
	c0,6.967,5.648,12.614,12.614,12.614c14.749,0,104.988,0,119.656,0c6.967,0,12.614-5.647,12.614-12.614V268.23v-38.395
	C328.494,222.869,322.846,217.22,315.879,217.22z"/>
<g>
	<path style="fill:#F74352;" d="M220.645,333.147v-64.916v-38.395c0-6.967,5.648-12.615,12.614-12.615h-37.036
		c-6.967,0-12.614,5.648-12.614,12.615v38.395v64.916c0,6.967,5.648,12.614,12.614,12.614c14.347,0,14.412,0,37.036,0
		C226.294,345.762,220.645,340.114,220.645,333.147z"/>
	<path style="fill:#F74352;" d="M272.218,261.411c0-9.278-7.817-16.73-17.224-16.132c-8.054,0.512-14.589,7.07-15.078,15.125
		c-0.365,6.016,2.564,11.374,7.153,14.446c0.692,0.463,1.118,1.229,1.118,2.062v9.906c0,4.037,2.958,7.579,6.971,8.022
		c4.744,0.524,8.759-3.177,8.759-7.815V276.88c0-0.816,0.421-1.566,1.1-2.019C269.357,271.964,272.218,267.023,272.218,261.411z"/>
</g>
<path style="fill:#E8364C;" d="M262.86,274.849c-4.589-3.072-7.517-8.429-7.153-14.446c0.339-5.588,3.592-10.451,8.24-13.08
	c-2.623-1.473-5.687-2.253-8.953-2.045c-8.054,0.512-14.589,7.07-15.078,15.125c-0.365,6.016,2.564,11.374,7.153,14.446
	c0.692,0.463,1.118,1.229,1.118,2.062v9.906c0,4.037,2.958,7.579,6.971,8.022c4.744,0.524,8.759-3.177,8.759-7.815V276.88
	c0-0.077,0.021-0.149,0.029-0.225C263.867,275.925,263.479,275.264,262.86,274.849z"/>
<path style="fill:#FAC149;" d="M422.894,296.515v-30.045c0-11.333,9.22-20.553,20.554-20.553h42.388
	c11.333,0,20.553,9.22,20.553,20.553v30.045c0,11.333-9.22,20.553-20.553,20.553h-42.388
	C432.114,317.068,422.894,307.848,422.894,296.515z M443.447,266.051c-0.207,0-0.417,0.21-0.417,0.417v30.045
	c0,0.207,0.211,0.417,0.417,0.417h42.388c0.207,0,0.417-0.21,0.417-0.417v-30.045c0-0.207-0.21-0.417-0.417-0.417H443.447z"/>
<path style="fill:#F8A748;" d="M464.663,296.931h-21.216c-0.207,0-0.417-0.21-0.417-0.417v-30.045c0-0.207,0.211-0.417,0.417-0.417
	h21.216c0.225-11.139,9.34-20.136,20.532-20.136h-41.748c-11.333,0-20.553,9.22-20.553,20.553v30.045
	c0,11.333,9.22,20.553,20.553,20.553h41.748C474.003,317.068,464.888,308.071,464.663,296.931z"/>
<path style="fill:#FAC149;" d="M339.398,296.515v-30.045c0-11.333,9.22-20.553,20.553-20.553h42.388
	c11.333,0,20.553,9.22,20.553,20.553v30.045c0,11.333-9.22,20.553-20.553,20.553h-42.388
	C348.618,317.068,339.398,307.848,339.398,296.515z M359.952,266.051c-0.207,0-0.417,0.21-0.417,0.417v30.045
	c0,0.207,0.211,0.417,0.417,0.417h42.388c0.207,0,0.417-0.21,0.417-0.417v-30.045c0-0.207-0.211-0.417-0.417-0.417H359.952z"/>
<path style="fill:#F8A748;" d="M380.643,296.931h-20.691c-0.207,0-0.417-0.21-0.417-0.417v-30.045c0-0.207,0.211-0.417,0.417-0.417
	h20.691c0.225-11.139,9.34-20.136,20.532-20.136h-41.223c-11.333,0-20.554,9.22-20.554,20.553v30.045
	c0,11.333,9.22,20.553,20.554,20.553h41.223C389.983,317.068,380.868,308.071,380.643,296.931z"/>
<g>
	<path style="fill:#EF8C29;" d="M437.596,291.56h-30.456c-5.56,0-10.068-4.507-10.068-10.068l0,0c0-5.56,4.507-10.068,10.068-10.068
		h30.456c5.56,0,10.068,4.507,10.068,10.068l0,0C447.665,287.051,443.157,291.56,437.596,291.56z"/>
	<path style="fill:#EF8C29;" d="M357.83,291.56h-30.456c-5.56,0-10.068-4.507-10.068-10.068l0,0c0-5.56,4.507-10.068,10.068-10.068
		h30.456c5.56,0,10.068,4.507,10.068,10.068l0,0C367.898,287.051,363.391,291.56,357.83,291.56z"/>
	<path style="fill:#EF8C29;" d="M512,281.491c0-5.56-4.507-10.068-10.068-10.068H488.38c-5.56,0-10.068,4.507-10.068,10.068
		c0,5.56,4.507,10.068,10.068,10.068h13.552C507.493,291.56,512,287.051,512,281.491z"/>
</g>
<path style="fill:#FAC149;" d="M89.736,296.515v-30.045c0-11.333,9.22-20.553,20.553-20.553h42.388
	c11.333,0,20.553,9.22,20.553,20.553v30.045c0,11.333-9.22,20.553-20.553,20.553h-42.388
	C98.956,317.068,89.736,307.848,89.736,296.515z M110.289,266.051c-0.207,0-0.417,0.21-0.417,0.417v30.045
	c0,0.207,0.211,0.417,0.417,0.417h42.388c0.207,0,0.417-0.21,0.417-0.417v-30.045c0-0.207-0.21-0.417-0.417-0.417H110.289z"/>
<path style="fill:#F8A748;" d="M131.504,296.931h-21.216c-0.207,0-0.417-0.21-0.417-0.417v-30.045c0-0.207,0.211-0.417,0.417-0.417
	h21.216c0.225-11.139,9.34-20.136,20.532-20.136h-41.748c-11.333,0-20.553,9.22-20.553,20.553v30.045
	c0,11.333,9.22,20.553,20.553,20.553h41.748C140.844,317.068,131.73,308.071,131.504,296.931z"/>
<path style="fill:#FAC149;" d="M6.239,296.515v-30.045c0-11.333,9.22-20.553,20.553-20.553h42.388
	c11.333,0,20.553,9.22,20.553,20.553v30.045c0,11.333-9.22,20.553-20.553,20.553H26.793C15.46,317.068,6.239,307.848,6.239,296.515z
	 M26.793,266.051c-0.207,0-0.417,0.21-0.417,0.417v30.045c0,0.207,0.211,0.417,0.417,0.417h42.388c0.207,0,0.417-0.21,0.417-0.417
	v-30.045c0-0.207-0.211-0.417-0.417-0.417H26.793z"/>
<path style="fill:#F8A748;" d="M47.484,296.931H26.793c-0.207,0-0.417-0.21-0.417-0.417v-30.045c0-0.207,0.211-0.417,0.417-0.417
	h20.691c0.225-11.139,9.34-20.136,20.532-20.136H26.793c-11.333,0-20.554,9.22-20.554,20.553v30.045
	c0,11.333,9.22,20.553,20.554,20.553h41.223C56.824,317.068,47.71,308.071,47.484,296.931z"/>
<g>
	<path style="fill:#EF8C29;" d="M74.507,291.56h30.456c5.56,0,10.068-4.507,10.068-10.068l0,0c0-5.56-4.507-10.068-10.068-10.068
		H74.507c-5.56,0-10.068,4.507-10.068,10.068l0,0C64.439,287.051,68.946,291.56,74.507,291.56z"/>
	<path style="fill:#EF8C29;" d="M154.274,291.56h30.456c5.56,0,10.068-4.507,10.068-10.068l0,0c0-5.56-4.507-10.068-10.068-10.068
		h-30.456c-5.56,0-10.068,4.507-10.068,10.068l0,0C144.206,287.051,148.713,291.56,154.274,291.56z"/>
	<path style="fill:#EF8C29;" d="M0.104,281.491c0-5.56,4.507-10.068,10.068-10.068h13.552c5.56,0,10.068,4.507,10.068,10.068
		c0,5.56-4.507,10.068-10.068,10.068H10.172C4.612,291.56,0.104,287.051,0.104,281.491z"/>
</g>
<g>
</g>
<g>
</g>
<g>
</g>
<g>
</g>
<g>
</g>
<g>
</g>
<g>
</g>
<g>
</g>
<g>
</g>
<g>
</g>
<g>
</g>
<g>
</g>
<g>
</g>
<g>
</g>
<g>
</g>
</svg>
