<svg xmlns="http://www.w3.org/2000/svg" height="512pt" version="1.1" viewBox="-2 0 512 512" width="512pt">
<g id="surface1">
<path d="M 507.953125 258.023438 C 507.953125 398.292969 394.242188 512 253.976562 512 C 113.707031 512 0 398.292969 0 258.023438 C 0 117.757812 113.707031 4.046875 253.976562 4.046875 C 394.242188 4.046875 507.953125 117.757812 507.953125 258.023438 Z M 507.953125 258.023438 " style=" stroke:none;fill-rule:nonzero;fill:rgb(21.960784%,23.529412%,41.960784%);fill-opacity:1;" />
<path d="M 82.992188 445.820312 C 128.121094 486.933594 188.121094 512 253.976562 512 C 319.832031 512 379.832031 486.933594 424.960938 445.820312 Z M 82.992188 445.820312 " style=" stroke:none;fill-rule:nonzero;fill:rgb(16.078431%,18.823529%,34.901961%);fill-opacity:1;" />
<path d="M 218.148438 445.820312 L 82.992188 445.820312 C 118.292969 477.980469 162.695312 500.320312 211.878906 508.523438 C 189.867188 493.890625 192.429688 456.128906 218.148438 445.820312 Z M 218.148438 445.820312 " style=" stroke:none;fill-rule:nonzero;fill:rgb(9.803922%,14.117647%,28.627451%);fill-opacity:1;" />
<path d="M 403.089844 104.625 C 397.992188 104.625 393.863281 100.492188 393.863281 95.398438 L 393.875 9.222656 C 393.875 4.128906 398.003906 0 403.097656 0 L 403.101562 0 C 408.195312 0 412.324219 4.132812 412.324219 9.226562 L 412.3125 95.402344 C 412.3125 100.496094 408.183594 104.625 403.089844 104.625 Z M 403.089844 104.625 " style=" stroke:none;fill-rule:nonzero;fill:rgb(100%,67.45098%,0%);fill-opacity:1;" />
<path d="M 329.585938 86.285156 C 328.140625 84.308594 325.972656 82.988281 323.554688 82.613281 L 287.09375 76.949219 C 282.058594 76.164062 277.34375 79.617188 276.5625 84.648438 C 275.777344 89.683594 279.226562 94.398438 284.261719 95.179688 L 299.738281 97.585938 L 106.558594 222.890625 C 102.285156 225.664062 101.066406 231.378906 103.839844 235.648438 C 106.621094 239.9375 112.339844 241.132812 116.601562 238.367188 L 309.457031 113.273438 L 307.359375 126.773438 C 306.492188 132.351562 310.800781 137.414062 316.484375 137.414062 C 320.957031 137.414062 324.882812 134.160156 325.589844 129.605469 L 331.253906 93.144531 C 331.628906 90.726562 331.027344 88.257812 329.585938 86.285156 Z M 329.585938 86.285156 " style=" stroke:none;fill-rule:nonzero;fill:rgb(35.686275%,70.980392%,90.588235%);fill-opacity:1;" />
<path d="M 411.785156 92.773438 L 411.78125 92.773438 L 384.421875 92.769531 C 379.328125 92.769531 375.199219 88.636719 375.199219 83.542969 C 375.199219 78.449219 379.332031 74.320312 384.425781 74.320312 L 411.785156 74.324219 C 415.308594 74.324219 418.175781 71.457031 418.179688 67.933594 C 418.179688 66.226562 417.515625 64.617188 416.308594 63.410156 C 415.101562 62.203125 413.492188 61.539062 411.785156 61.539062 L 394.398438 61.535156 C 380.703125 61.535156 369.558594 50.390625 369.5625 36.691406 C 369.5625 30.058594 372.148438 23.820312 376.839844 19.128906 C 381.53125 14.4375 387.769531 11.855469 394.402344 11.855469 L 421.765625 11.855469 C 426.859375 11.859375 430.988281 15.988281 430.988281 21.082031 C 430.984375 26.175781 426.855469 30.304688 421.761719 30.304688 L 394.402344 30.304688 C 390.878906 30.304688 388.011719 33.171875 388.007812 36.695312 C 388.007812 40.21875 390.875 43.085938 394.402344 43.089844 L 411.785156 43.089844 C 418.421875 43.089844 424.660156 45.675781 429.351562 50.367188 C 434.042969 55.0625 436.628906 61.300781 436.625 67.933594 C 436.625 74.570312 434.039062 80.808594 429.347656 85.5 C 424.65625 90.1875 418.421875 92.773438 411.785156 92.773438 Z M 411.785156 92.773438 " style=" stroke:none;fill-rule:nonzero;fill:rgb(100%,80.392157%,21.960784%);fill-opacity:1;" />
<path d="M 106.175781 317.25 C 87.835938 317.25 72.96875 332.117188 72.96875 350.457031 L 72.96875 436.160156 C 76.222656 439.46875 79.5625 442.695312 82.992188 445.820312 L 139.386719 445.820312 L 139.386719 350.457031 C 139.386719 332.117188 124.519531 317.25 106.175781 317.25 Z M 106.175781 317.25 " style=" stroke:none;fill-rule:nonzero;fill:rgb(99.607843%,31.372549%,37.254902%);fill-opacity:1;" />
<path d="M 122.78125 321.703125 C 117.894531 318.878906 112.230469 317.25 106.179688 317.25 C 87.839844 317.25 72.96875 332.117188 72.96875 350.457031 L 72.96875 436.160156 C 76.226562 439.46875 79.5625 442.695312 82.992188 445.820312 L 106.179688 445.820312 L 106.179688 350.457031 C 106.175781 338.167969 112.859375 327.445312 122.78125 321.703125 Z M 122.78125 321.703125 " style=" stroke:none;fill-rule:nonzero;fill:rgb(87.058824%,21.176471%,28.235294%);fill-opacity:1;" />
<path d="M 238.464844 445.820312 L 172.046875 445.820312 L 172.046875 286.171875 C 172.046875 267.832031 186.914062 252.964844 205.257812 252.964844 C 223.597656 252.964844 238.464844 267.832031 238.464844 286.171875 Z M 238.464844 445.820312 " style=" stroke:none;fill-rule:nonzero;fill:rgb(100%,80.392157%,21.960784%);fill-opacity:1;" />
<path d="M 337.542969 445.820312 L 271.128906 445.820312 L 271.128906 221.886719 C 271.128906 203.546875 285.996094 188.679688 304.335938 188.679688 C 322.675781 188.679688 337.542969 203.546875 337.542969 221.886719 Z M 337.542969 445.820312 " style=" stroke:none;fill-rule:nonzero;fill:rgb(80%,87.058824%,23.921569%);fill-opacity:1;" />
<path d="M 436.621094 157.601562 C 436.621094 139.261719 421.753906 124.394531 403.414062 124.394531 C 385.074219 124.394531 370.207031 139.261719 370.207031 157.601562 L 370.207031 445.820312 L 424.960938 445.820312 C 428.972656 442.167969 432.855469 438.378906 436.625 434.480469 L 436.625 157.601562 Z M 436.621094 157.601562 " style=" stroke:none;fill-rule:nonzero;fill:rgb(35.686275%,70.980392%,90.588235%);fill-opacity:1;" />
<path d="M 221.859375 257.417969 C 216.976562 254.589844 211.308594 252.964844 205.257812 252.964844 C 186.914062 252.964844 172.046875 267.832031 172.046875 286.171875 L 172.046875 445.820312 L 205.257812 445.820312 L 205.257812 286.171875 C 205.257812 273.882812 211.9375 263.160156 221.859375 257.417969 Z M 221.859375 257.417969 " style=" stroke:none;fill-rule:nonzero;fill:rgb(100%,67.45098%,0%);fill-opacity:1;" />
<path d="M 320.941406 193.132812 C 316.054688 190.304688 310.386719 188.679688 304.335938 188.679688 C 285.996094 188.679688 271.128906 203.546875 271.128906 221.886719 L 271.128906 445.820312 L 304.335938 445.820312 L 304.335938 221.886719 C 304.335938 209.597656 311.015625 198.875 320.941406 193.132812 Z M 320.941406 193.132812 " style=" stroke:none;fill-rule:nonzero;fill:rgb(68.627451%,78.039216%,15.686275%);fill-opacity:1;" />
<path d="M 420.019531 128.847656 C 415.132812 126.019531 409.464844 124.394531 403.414062 124.394531 C 385.074219 124.394531 370.207031 139.261719 370.207031 157.601562 L 370.207031 445.820312 L 403.414062 445.820312 L 403.414062 157.601562 C 403.414062 145.3125 410.09375 134.589844 420.019531 128.847656 Z M 420.019531 128.847656 " style=" stroke:none;fill-rule:nonzero;fill:rgb(27.843137%,58.823529%,80.392157%);fill-opacity:1;" />
<path d="M 106.175781 381.535156 C 87.835938 381.535156 72.96875 396.402344 72.96875 414.742188 L 72.96875 436.160156 C 76.222656 439.464844 79.558594 442.695312 82.992188 445.820312 L 139.386719 445.820312 L 139.386719 414.742188 C 139.386719 396.402344 124.519531 381.535156 106.175781 381.535156 Z M 106.175781 381.535156 " style=" stroke:none;fill-rule:nonzero;fill:rgb(87.058824%,21.176471%,28.235294%);fill-opacity:1;" />
<path d="M 106.175781 445.820312 L 106.175781 381.535156 C 87.835938 381.535156 72.96875 396.402344 72.96875 414.742188 L 72.96875 436.160156 C 76.222656 439.464844 79.558594 442.695312 82.992188 445.820312 Z M 106.175781 445.820312 " style=" stroke:none;fill-rule:nonzero;fill:rgb(80%,12.941176%,21.568627%);fill-opacity:1;" />
<path d="M 205.257812 335.699219 C 186.914062 335.699219 172.046875 350.566406 172.046875 368.90625 L 172.046875 445.820312 L 238.464844 445.820312 L 238.464844 368.90625 C 238.464844 350.566406 223.597656 335.699219 205.257812 335.699219 Z M 205.257812 335.699219 " style=" stroke:none;fill-rule:nonzero;fill:rgb(100%,67.45098%,0%);fill-opacity:1;" />
<path d="M 172.046875 368.90625 L 172.046875 445.820312 L 205.253906 445.820312 L 205.253906 335.699219 C 186.914062 335.699219 172.050781 350.566406 172.046875 368.90625 Z M 172.046875 368.90625 " style=" stroke:none;fill-rule:nonzero;fill:rgb(100%,52.156863%,0%);fill-opacity:1;" />
<path d="M 304.335938 289.863281 C 285.996094 289.863281 271.128906 304.730469 271.128906 323.070312 L 271.128906 445.820312 L 337.542969 445.820312 L 337.542969 323.070312 C 337.542969 304.730469 322.675781 289.863281 304.335938 289.863281 Z M 304.335938 289.863281 " style=" stroke:none;fill-rule:nonzero;fill:rgb(68.627451%,78.039216%,15.686275%);fill-opacity:1;" />
<path d="M 304.335938 289.863281 C 285.996094 289.863281 271.128906 304.730469 271.128906 323.070312 L 271.128906 445.820312 L 304.335938 445.820312 Z M 304.335938 289.863281 " style=" stroke:none;fill-rule:nonzero;fill:rgb(56.862745%,68.627451%,7.058824%);fill-opacity:1;" />
<path d="M 436.621094 277.234375 C 436.621094 258.894531 421.753906 244.027344 403.414062 244.027344 C 385.074219 244.027344 370.207031 258.894531 370.207031 277.234375 L 370.207031 445.820312 L 424.960938 445.820312 C 428.972656 442.167969 432.855469 438.378906 436.621094 434.480469 Z M 436.621094 277.234375 " style=" stroke:none;fill-rule:nonzero;fill:rgb(27.843137%,58.823529%,80.392157%);fill-opacity:1;" />
<path d="M 403.414062 244.027344 C 385.074219 244.027344 370.207031 258.894531 370.207031 277.234375 L 370.207031 445.820312 L 403.414062 445.820312 Z M 403.414062 244.027344 " style=" stroke:none;fill-rule:nonzero;fill:rgb(5.882353%,49.411765%,73.72549%);fill-opacity:1;" />
<path d="M 73.394531 436.59375 C 79.828125 443.101562 86.613281 449.261719 93.714844 455.042969 L 414.238281 455.042969 C 421.339844 449.261719 428.121094 443.101562 434.558594 436.59375 Z M 73.394531 436.59375 " style=" stroke:none;fill-rule:nonzero;fill:rgb(48.627451%,50.588235%,72.54902%);fill-opacity:1;" />
<path d="M 198.617188 445.820312 C 198.617188 441.515625 201.421875 437.871094 205.300781 436.59375 L 73.394531 436.59375 C 79.828125 443.101562 86.613281 449.261719 93.714844 455.042969 L 205.300781 455.042969 C 201.421875 453.769531 198.617188 450.125 198.617188 445.820312 Z M 198.617188 445.820312 " style=" stroke:none;fill-rule:nonzero;fill:rgb(39.215686%,40.392157%,61.176471%);fill-opacity:1;" />
<path d="M 206.101562 158.324219 L 106.5625 222.894531 C 102.285156 225.664062 101.070312 231.378906 103.84375 235.652344 C 106.621094 239.9375 112.339844 241.136719 116.601562 238.371094 L 216.925781 173.292969 C 208.742188 173.9375 202.996094 165.6875 206.101562 158.324219 Z M 206.101562 158.324219 " style=" stroke:none;fill-rule:nonzero;fill:rgb(27.843137%,58.823529%,80.392157%);fill-opacity:1;" />
</g>
</svg>