<svg height="512pt" viewBox="-11 0 512 512.00013" width="512pt" xmlns="http://www.w3.org/2000/svg"><path d="m490 245c0 135.308594-109.691406 245-245 245s-245-109.691406-245-245 109.691406-245 245-245 245 109.691406 245 245zm0 0" fill="#5e73dd"/><path d="m320.007812 399.148438c-47.875 17.644531-99.539062 17.929687-147.539062.878906 9.003906 14.3125 12.546875 32.570312 9.578125 50.253906l-1.925781 11.46875c43.09375 12.894531 88.492187 12.90625 131.589844.035156l-1.957032-11.503906c-3.066406-18.046875.714844-36.699219 10.253906-51.132812zm0 0" fill="#ccccce"/><path d="m180.121094 461.75c15.683594 4.691406 31.671875 7.667969 47.738281 8.949219-7.183594-7.042969-11.507813-16.855469-11.269531-27.527344.304687-13.722656 6.605468-24.417969 15.644531-30.953125-20.195313-1.207031-40.28125-5.269531-59.765625-12.191406 9.003906 14.3125 12.546875 32.570312 9.578125 50.25zm0 0" fill="#bfbfbf"/><path d="m398.304688 270.171875c7.140624-18.417969 11.0625-38.445313 11.0625-59.386719 0-90.851562-73.710938-164.488281-164.59375-164.367187-88.917969.121093-163.589844 74.414062-164.136719 163.332031-.132813 21.320312 3.800781 41.703125 11.0625 60.425781 1.046875 2.703125 1.140625 5.691407.21875 8.441407-2.804688 8.359374-3.9375 17.484374-2.976563 26.984374 2.949219 29.167969 25.1875 52.46875 54.191406 56.726563.320313.050781.636719.09375.953126.136719 10.433593 1.375 18.234374 10.257812 18.234374 20.785156v8.179688c0 4.785156 3.066407 9.035156 7.609376 10.542968 48.734374 16.199219 101.40625 16.199219 150.140624 0l.238282-.078125c4.402344-1.464843 7.371094-5.582031 7.371094-10.21875v-7.898437c0-10.765625 7.933593-19.894532 18.601562-21.367188.1875-.023437.378906-.050781.570312-.078125 29.007813-4.253906 51.257813-27.5625 54.207032-56.730469.957031-9.503906-.175782-18.628906-2.980469-26.988281-.921875-2.75-.824219-5.734375.226563-8.441406zm0 0" fill="#fff"/><path d="m230.398438 413.671875c-2.265626-2.316406-3.621094-5.472656-3.621094-8.867187v-9.328126c0-12.003906-8.894532-22.132812-20.792969-23.703124-.359375-.046876-.722656-.097657-1.085937-.152344-33.070313-4.855469-58.429688-31.429688-61.792969-64.6875-1.09375-10.832032.199219-21.238282 3.394531-30.769532 1.050781-3.136718.945312-6.542968-.25-9.625-8.28125-21.351562-12.765625-44.59375-12.617188-68.902343.367188-58.980469 29.332032-112.308594 73.453126-146.636719-71.371094 17.460938-125.980469 82.757812-126.449219 158.75-.132813 21.320312 3.800781 41.703125 11.0625 60.425781 1.050781 2.703125 1.144531 5.691407.222656 8.441407-2.804687 8.359374-3.9375 17.484374-2.980469 26.984374 2.949219 29.167969 25.191406 52.46875 54.195313 56.726563.316406.050781.632812.09375.953125.136719 10.433594 1.375 18.230468 10.257812 18.230468 20.785156v8.179688c0 4.785156 3.066407 9.035156 7.609376 10.542968 19.6875 6.542969 40.015624 10.441406 60.46875 11.699219zm0 0" fill="#ebeaec"/><path d="m113.355469 38.34375-31.480469 51.625c-10.03125 33-6.6875 59.125-7.355469 72.070312h340.957031c-.667968-15.035156 2.695313-39.015624-7.355468-72.070312l-31.480469-51.628906c-38.023437-24.269532-83.1875-38.339844-131.640625-38.339844s-93.621094 14.070312-131.644531 38.34375zm0 0" fill="#a0391e"/><path d="m303.554688 75.09375h-117.109376c-29.535156 0-54.050781-17.304688-65.597656-41.332031-2.523437 1.484375-5.027344 3.007812-7.492187 4.582031l-31.480469 51.625c-10.03125 33-6.6875 59.125-7.355469 72.070312h340.957031c-.667968-15.035156 2.695313-39.015624-7.355468-72.070312l-31.480469-51.628906c-2.464844-1.574219-4.964844-3.09375-7.488281-4.578125-11.546875 24.027343-36.0625 41.332031-65.597656 41.332031zm0 0" fill="#84260d"/><path d="m316.800781 10.699219c-22.707031-6.949219-46.816406-10.699219-71.800781-10.699219-25.707031 0-50.484375 3.96875-73.765625 11.3125v150.726562h145.566406zm0 0" fill="#84260d"/><path d="m303.554688 75.09375h-117.109376c-5.246093 0-10.328124-.558594-15.210937-1.589844v88.535156h145.566406v-88.144531c-4.277343.78125-8.699219 1.199219-13.246093 1.199219zm0 0" fill="#661409"/><path d="m273.152344 1.621094c-9.238282-1.058594-18.628906-1.621094-28.152344-1.621094s-18.914062.5625-28.152344 1.621094v160.417968h56.304688zm0 0" fill="#ccccce"/><path d="m245.046875 105.347656h-.09375c-15.523437 0-28.105469-12.585937-28.105469-28.109375v84.800781h56.304688v-84.800781c0 15.523438-12.582032 28.109375-28.105469 28.109375zm0 0" fill="#bfbfbf"/><path d="m425.648438 79.511719c-17.9375-19.570313-39.007813-36.207031-62.421876-49.132813l36.992188 60.660156c2.648438 4.351563 7.28125 6.75 12.03125 6.75 2.496094 0 5.027344-.664062 7.3125-2.058593 5.636719-3.4375 7.980469-10.195313 6.085938-16.21875zm0 0" fill="#dad9dd"/><path d="m64.351562 79.511719c-1.894531 6.023437.449219 12.78125 6.085938 16.21875 2.285156 1.394531 4.816406 2.058593 7.3125 2.058593 4.75 0 9.378906-2.398437 12.03125-6.75l36.992188-60.660156c-23.414063 12.925782-44.488282 29.5625-62.421876 49.132813zm0 0" fill="#dad9dd"/><path d="m245 36.605469c-5.859375 0-10.425781-4.785157-10.425781-10.425781 0-6.648438 6.136719-11.496094 12.46875-10.21875 5.03125 1.039062 8.382812 5.371093 8.382812 10.21875 0 5.777343-4.691406 10.425781-10.425781 10.425781zm0 0" fill="#ebeaec"/><path d="m245 93.597656c-5.863281 0-10.429688-4.789062-10.429688-10.425781 0-6.652344 6.140626-11.496094 12.472657-10.21875 5.027343 1.035156 8.382812 5.367187 8.382812 10.21875 0 5.777344-4.695312 10.425781-10.425781 10.425781zm0 0" fill="#ebeaec"/><path d="m211.082031 297.328125c-11.742187-7.742187-36.609375-19.984375-72.140625-23.652344-5.753906-.59375-9.664062 5.707031-6.570312 10.59375l11.332031 17.90625c10.5 16.597657 30.269531 24.847657 49.453125 20.636719l16.90625-3.707031c3.382812-.742188 6.050781-3.332031 6.898438-6.6875 1.453124-5.773438-.910157-11.816407-5.878907-15.089844zm0 0" fill="#ff5252"/><path d="m349.09375 273.675781c-35.53125 3.667969-60.398438 15.910157-72.140625 23.652344-4.96875 3.273437-7.332031 9.316406-5.878906 15.089844.847656 3.355469 3.515625 5.945312 6.898437 6.6875l16.90625 3.707031c19.183594 4.207031 38.949219-4.039062 49.453125-20.636719l11.332031-17.90625c3.09375-4.886719-.816406-11.1875-6.570312-10.59375zm0 0" fill="#ff5252"/><path d="m211.082031 297.328125c-11.742187-7.742187-36.609375-19.984375-72.140625-23.652344-5.753906-.59375-9.664062 5.707031-6.570312 10.59375l11.332031 17.90625c10.5 16.597657 30.269531 24.847657 49.453125 20.636719l16.90625-3.707031c3.382812-.742188 6.050781-3.332031 6.898438-6.6875 1.453124-5.773438-.910157-11.816407-5.878907-15.089844zm0 0" fill="#ff5252"/><path d="m349.09375 273.675781c-35.53125 3.667969-60.398438 15.910157-72.140625 23.652344-4.96875 3.273437-7.332031 9.316406-5.878906 15.089844.847656 3.355469 3.515625 5.945312 6.898437 6.6875l16.90625 3.707031c19.183594 4.207031 38.949219-4.039062 49.453125-20.636719l11.332031-17.90625c3.09375-4.886719-.816406-11.1875-6.570312-10.59375zm0 0" fill="#ff5252"/><path d="m312.105469 458.3125c-43.304688 11.722656-88.949219 11.722656-132.253907 0-6.070312-1.640625-12.050781 2.875-12.050781 9.164062v.179688c.066407 19.890625 14.347657 36.96875 33.933594 40.445312 29.230469 5.191407 59.148437 5.199219 88.382813.019532 19.582031-3.46875 33.917968-20.363282 34.035156-40.25 0-.132813.003906-.261719.003906-.394532 0-6.289062-5.980469-10.804687-12.050781-9.164062zm0 0" fill="#ebeaec"/><g fill="#dad9dd"><path d="m224.019531 466.144531c-14.867187-1.296875-29.648437-3.902343-44.167969-7.832031-6.070312-1.640625-12.050781 2.875-12.050781 9.164062v.179688c.066407 19.890625 14.347657 36.96875 33.933594 40.445312 6.617187 1.175782 13.265625 2.070313 19.9375 2.714844-15.796875-26.316406.871094-43.253906 2.347656-44.671875zm0 0"/><path d="m245.980469 421.667969c-4.167969 0-7.546875-3.378907-7.546875-7.546875v-10.773438c0-4.167968 3.378906-7.542968 7.546875-7.542968 4.164062 0 7.542969 3.378906 7.542969 7.542968v10.773438c0 4.167968-3.378907 7.546875-7.542969 7.546875zm0 0"/><path d="m275.378906 419.824219c-4.167968 0-7.542968-3.378907-7.542968-7.546875v-10.773438c0-4.167968 3.375-7.542968 7.542968-7.542968 4.167969 0 7.546875 3.378906 7.546875 7.542968v10.773438c0 4.167968-3.378906 7.546875-7.546875 7.546875zm0 0"/><path d="m304.777344 414.773438c-4.167969 0-7.542969-3.378907-7.542969-7.546876v-10.773437c0-4.167969 3.375-7.546875 7.542969-7.546875 4.167968 0 7.546875 3.378906 7.546875 7.546875v10.773437c0 4.167969-3.378907 7.546876-7.546875 7.546876zm0 0"/><path d="m216.578125 419.824219c-4.167969 0-7.542969-3.378907-7.542969-7.546875v-10.773438c0-4.167968 3.375-7.542968 7.542969-7.542968s7.546875 3.378906 7.546875 7.542968v10.773438c0 4.167968-3.378906 7.546875-7.546875 7.546875zm0 0"/><path d="m187.179688 414.773438c-4.167969 0-7.542969-3.378907-7.542969-7.546876v-10.773437c0-4.167969 3.375-7.546875 7.542969-7.546875 4.167968 0 7.546874 3.378906 7.546874 7.546875v10.773437c0 4.167969-3.378906 7.546876-7.546874 7.546876zm0 0"/><path d="m245.980469 486.203125c-4.167969 0-7.546875-3.375-7.546875-7.542969v-10.773437c0-4.167969 3.378906-7.542969 7.546875-7.542969 4.164062 0 7.542969 3.375 7.542969 7.542969v10.773437c0 4.167969-3.378907 7.542969-7.542969 7.542969zm0 0"/><path d="m275.378906 484.359375c-4.167968 0-7.542968-3.375-7.542968-7.542969v-10.773437c0-4.167969 3.375-7.546875 7.542968-7.546875 4.167969 0 7.546875 3.378906 7.546875 7.546875v10.773437c0 4.167969-3.378906 7.542969-7.546875 7.542969zm0 0"/><path d="m216.578125 484.359375c-4.167969 0-7.542969-3.375-7.542969-7.542969v-10.773437c0-4.167969 3.375-7.546875 7.542969-7.546875s7.546875 3.378906 7.546875 7.546875v10.773437c0 4.167969-3.378906 7.542969-7.546875 7.542969zm0 0"/></g><path d="m405.441406 146.234375h-320.882812c-7.996094 0-14.476563 6.480469-14.476563 14.476563v31.65625h349.835938v-31.65625c0-7.996094-6.484375-14.476563-14.476563-14.476563zm0 0" fill="#ccccce"/><path d="m422.566406 192.367188h-354.550781c-11.117187 0-20.683594 8.542968-21.203125 19.648437-.558594 11.855469 8.886719 21.644531 20.621094 21.644531h141.972656c4.105469 0 8.003906 2.105469 10.019531 5.683594 5.023438 8.929688 14.59375 14.964844 25.574219 14.964844s20.550781-6.035156 25.578125-14.964844c2.015625-3.578125 5.910156-5.683594 10.015625-5.683594h141.390625c11.117187 0 20.683594-8.542968 21.207031-19.648437.554688-11.855469-8.890625-21.644531-20.625-21.644531zm0 0" fill="#dad9dd"/><path d="m118.613281 212.015625c.523438-11.105469 10.085938-19.648437 21.203125-19.648437h-71.800781c-11.117187 0-20.683594 8.542968-21.203125 19.648437-.558594 11.855469 8.886719 21.644531 20.621094 21.644531h71.800781c-11.730469 0-21.179687-9.785156-20.621094-21.644531zm0 0" fill="#ccccce"/><path d="m362.320312 179.726562c-5.859374 0-10.425781-4.789062-10.425781-10.425781 0-6.652343 6.136719-11.496093 12.46875-10.21875 5.03125 1.035157 8.382813 5.367188 8.382813 10.21875 0 5.777344-4.691406 10.425781-10.425782 10.425781zm0 0" fill="#ebeaec"/><path d="m303.167969 179.726562c-5.859375 0-10.425781-4.789062-10.425781-10.425781 0-6.652343 6.136718-11.496093 12.46875-10.21875 5.03125 1.035157 8.382812 5.367188 8.382812 10.21875.003906 5.777344-4.691406 10.425781-10.425781 10.425781zm0 0" fill="#ebeaec"/><path d="m244.019531 179.726562c-5.863281 0-10.429687-4.789062-10.429687-10.425781 0-6.652343 6.140625-11.496093 12.472656-10.21875 5.03125 1.035157 8.382812 5.367188 8.382812 10.21875 0 5.777344-4.691406 10.425781-10.425781 10.425781zm0 0" fill="#ebeaec"/><path d="m184.867188 179.726562c-5.863282 0-10.429688-4.789062-10.429688-10.425781 0-6.652343 6.140625-11.496093 12.472656-10.21875 5.027344 1.035157 8.382813 5.367188 8.382813 10.21875 0 5.777344-4.691407 10.425781-10.425781 10.425781zm0 0" fill="#ebeaec"/><path d="m123.972656 169.296875c0-10.882813 6.988282-19.707031 16.257813-23.0625h-55.671875c-7.996094 0-14.476563 6.480469-14.476563 14.476563v31.65625h70.054688c-9.53125-3.460938-16.164063-12.644532-16.164063-23.070313zm0 0" fill="#bfbfbf"/><path d="m238.59375 324.226562-21.53125 27.089844c-4.878906 6.136719-.898438 15.234375 6.921875 15.816406 1.453125.105469 2.863281.535157 4.125 1.257813l13.28125 7.589844c3.003906 1.714843 6.6875 1.714843 9.691406 0l13.28125-7.589844c1.265625-.722656 2.671875-1.152344 4.125-1.257813 7.820313-.582031 11.804688-9.679687 6.921875-15.816406l-21.527344-27.089844c-3.910156-4.917968-11.378906-4.917968-15.289062 0zm0 0" fill="#ccccce"/><path d="m275.414062 351.3125-21.53125-27.085938c-2.933593-3.6875-7.867187-4.609374-11.800781-2.765624 1.402344 1.339843 2.484375 3.066406 3.039063 5.113281l10.269531 38.015625c1.074219 3.976562-.121094 7.738281-2.53125 10.375l11.507813-6.574219c1.261718-.722656 2.671874-1.152344 4.121093-1.261719 7.820313-.578125 11.804688-9.675781 6.925781-15.816406zm0 0" fill="#bfbfbf"/><path d="m125.714844 179.726562c-5.859375 0-10.425782-4.789062-10.425782-10.425781 0-6.652343 6.136719-11.496093 12.46875-10.21875 5.03125 1.035157 8.382813 5.367188 8.382813 10.21875 0 5.777344-4.691406 10.425781-10.425781 10.425781zm0 0" fill="#ebeaec"/><path d="m302.648438 298.769531c0-7.558593 4.082031-14.152343 10.144531-17.742187-16.5 5.117187-28.640625 11.550781-35.839844 16.296875-8.367187 5.519531-8.71875 19.644531 1.019531 21.78125 10.910156 1.324219 26.796875 9.917969 47.085938.195312-12.207032 1.050781-22.410156-8.566406-22.410156-20.53125zm0 0" fill="#e03838"/><path d="m185.40625 298.769531c0-7.558593-4.082031-14.152343-10.144531-17.742187 16.5 5.117187 28.640625 11.550781 35.839843 16.296875 8.367188 5.519531 8.714844 19.644531-1.019531 21.78125-10.910156 1.324219-26.800781 9.917969-47.089843.195312 12.210937 1.050781 22.414062-8.566406 22.414062-20.53125zm0 0" fill="#e03838"/></svg>