<?xml version="1.0" encoding="iso-8859-1"?>
<!-- Generator: Adobe Illustrator 19.0.0, SVG Export Plug-In . SVG Version: 6.00 Build 0)  -->
<svg version="1.1" id="Layer_1" xmlns="http://www.w3.org/2000/svg" xmlns:xlink="http://www.w3.org/1999/xlink" x="0px" y="0px"
	 viewBox="0 0 496.158 496.158" style="enable-background:new 0 0 496.158 496.158;" xml:space="preserve">
<path style="fill:#F25872;" d="M248.082,0.003C111.07,0.003,0,111.063,0,248.085c0,137.001,111.07,248.07,248.082,248.07
	c137.006,0,248.076-111.069,248.076-248.07C496.158,111.062,385.088,0.003,248.082,0.003z"/>
<ellipse style="fill:#D6BC50;" cx="248.079" cy="149.209" rx="85.06" ry="95.95"/>
<path style="fill:#DBC565;" d="M163.025,149.207c0,52.993,38.079,95.953,85.055,95.953V53.254
	C201.104,53.254,163.025,96.214,163.025,149.207z"/>
<path style="fill:#D6BC50;" d="M248.079,331.053c-11.613,0-21.027,57.218-21.027,75.27c0,18.051,15.345,36.582,21.027,36.582
	c5.684,0,21.027-18.531,21.027-36.582C269.106,388.27,259.693,331.053,248.079,331.053z"/>
<path style="fill:#DBC565;" d="M227.052,406.322c0,18.051,15.345,36.582,21.027,36.582V331.053
	C236.466,331.053,227.052,388.27,227.052,406.322z"/>
<path style="fill:#D6BC50;" d="M248.079,210.283c-11.613,0-21.027,14.611-21.027,32.635c0,0,9.414,32.636,21.027,32.636
	c11.614,0,21.027-32.636,21.027-32.636C269.106,224.894,259.693,210.283,248.079,210.283z"/>
<path style="fill:#DBC565;" d="M227.052,242.918c0,0,9.414,32.636,21.027,32.636v-65.271
	C236.466,210.283,227.052,224.894,227.052,242.918z"/>
<path style="fill:#D6BC50;" d="M259.684,376.455c-6.014-34.879-5.412-125.767-5.412-126.284h-12.387
	c0,0.518,1.263,91.104-5.412,126.284H259.684z"/>
<g>
	<ellipse style="fill:#EAEAEA;" cx="248.079" cy="149.209" rx="71.42" ry="80.58"/>
	<ellipse style="fill:#EAEAEA;" cx="248.079" cy="149.209" rx="71.42" ry="80.58"/>
	<path style="fill:#EAEAEA;" d="M304.178,99.367L193.045,200.564c13.102,17.847,32.891,29.218,55.035,29.218
		c39.446,0,71.422-36.075,71.422-80.575C319.502,130.385,313.767,113.083,304.178,99.367z"/>
</g>
<path style="fill:#F2F2F2;" d="M248.08,68.631c-39.447,0-71.424,36.076-71.424,80.576c0,19.518,6.153,37.414,16.389,51.357
	L304.178,99.367C291.098,80.657,270.842,68.631,248.08,68.631z"/>
<path style="fill:#DBC565;" d="M242.93,274.193c0,0.431,1.05,75.75-4.5,105h9.799v-105H242.93z"/>
<g>
</g>
<g>
</g>
<g>
</g>
<g>
</g>
<g>
</g>
<g>
</g>
<g>
</g>
<g>
</g>
<g>
</g>
<g>
</g>
<g>
</g>
<g>
</g>
<g>
</g>
<g>
</g>
<g>
</g>
</svg>
